<?xml version="1.0" encoding="utf-8"?>
<!-- Generator: Adobe Illustrator 25.0.0, SVG Export Plug-In . SVG Version: 6.00 Build 0)  -->
<svg version="1.1" xmlns="http://www.w3.org/2000/svg" xmlns:xlink="http://www.w3.org/1999/xlink" x="0px" y="0px"
	 viewBox="0 0 500 500" style="enable-background:new 0 0 500 500;" xml:space="preserve">
<style type="text/css">
	.st0{fill:#FFFFFF;}
	.st1{fill:#181C1F;}
	.st2{fill:#861846;}
</style>
<g id="Layer_2">
	<path class="st0" d="M369,500H131C58.7,500,0,441.3,0,369V131C0,58.7,58.7,0,131,0h238c72.3,0,131,58.7,131,131v238
		C500,441.3,441.3,500,369,500z"/>
</g>
<g id="Layer_1">
	<g>
		<g>
			<path class="st1" d="M104.7,226.4c0-75.2,41.5-134.1,131-134.1c53,0,91.1,24.9,92.1,71.7c0.6,27.9-21.4,51.3-49.4,51.2
				c-28-0.1-48.9-21.1-48.9-49.1c0-28.1,21-49.1,48.6-49.1c-4.6-5.6-15.9-9.2-27.1-9.2c-43,0-64.5,42.5-64.5,106s21.5,106,69.6,106
				c20.3,0,39.7-7.5,53.5-22c2.7-2.9,7.1-3.5,10.5-1.4l0,0c4.3,2.5,5.5,8.1,2.7,12.2c-23.8,34.8-56.9,52.2-98.4,52.2
				C146.1,360.5,104.7,301.6,104.7,226.4z"/>
		</g>
		<g>
			<path class="st2" d="M335.4,226.8c0-14.3,11.4-25.7,25.7-25.7c14.3,0,25.7,11.4,25.7,25.7c0,14.3-11.4,25.7-25.7,25.7
				C346.8,252.5,335.4,241.1,335.4,226.8z M335.4,382.6l14.5-14.5c5.7-5.7,9.1-10.8,10.8-17.4c-14-0.3-25.4-11.4-25.4-25.7
				s11.4-25.7,25.7-25.7c14.3,0,25.7,11.4,25.7,25.7c0,12.8-5.1,23.4-30.8,49.1l-14.5,14.5L335.4,382.6z"/>
		</g>
	</g>
</g>
</svg>
